<mxfile host="app.diagrams.net" modified="2023-09-27T15:41:19.104Z" agent="Mozilla/5.0 (Windows NT 10.0; Win64; x64) AppleWebKit/537.36 (KHTML, like Gecko) Chrome/115.0.0.0 Safari/537.36" version="21.8.2" etag="4IYu63RXVk7LPaTDSTvs" type="github">
  <diagram name="Trang-1" id="IgOiWCjclD-YU0Voc9U_">
    <mxGraphModel>
      <root>
        <mxCell id="0" />
        <mxCell id="1" parent="0" />
      </root>
    </mxGraphModel>
  </diagram>
</mxfile>
